<svg width="1920" height="756" viewBox="0 0 1920 756" fill="none" xmlns="http://www.w3.org/2000/svg">
<path fill-rule="evenodd" clip-rule="evenodd" d="M1437.09 552.789C1437.51 545.749 1437.41 529.07 1437.09 517.146C1421.48 538.319 1375.2 558.218 1340.6 557.464C1317.76 557.464 1223.44 561.7 1170.49 464.879C1154.33 435.29 1145.03 403.96 1145.03 369.487C1144.78 336.085 1153.58 303.24 1170.49 274.434C1187.17 245.729 1211.1 221.915 1239.89 205.384C1269.17 188.368 1299.68 180.886 1335.11 181.587C1376.37 182.419 1417.87 203.825 1437.09 226.582C1437.09 204.085 1437.22 185.069 1437.09 185.069C1461.07 184.29 1521.79 184.185 1521.79 184.185V342.496C1521.79 375.228 1522.18 400.193 1523.51 418.898V553.257C1494.93 552.556 1460.61 552.685 1437.09 552.789ZM1333.4 261.99C1304.99 261.998 1277.74 273.289 1257.66 293.381C1237.58 313.472 1226.3 340.717 1226.3 369.123C1226.3 428.275 1271.09 480.128 1333.4 480.128C1395.5 480.128 1435.33 428.275 1435.33 369.123C1435.33 309.971 1392.56 261.99 1333.4 261.99Z" fill="url(#paint0_linear)"/>
<path fill-rule="evenodd" clip-rule="evenodd" d="M1863.4 523.588C1863.4 523.588 1829.13 618.747 1817.31 649.323C1807.26 675.25 1797.62 694.681 1781.67 711.748C1755.01 740.246 1711.83 755.963 1673.84 755.963C1658.54 755.963 1598.55 758.768 1549.47 715.541L1608.08 659.948C1620.06 667.975 1635.36 673.379 1656.8 675.431C1678.34 677.509 1704.55 672.73 1719 653.766C1728.86 641.049 1736.63 626.831 1741.99 611.655C1744.46 603.784 1741.32 588.924 1735.89 575.571C1703.07 494.961 1580.02 186.081 1580.02 186.081L1680.93 185.535L1788.89 474.725C1795.77 455.267 1800.42 442.277 1800.42 442.277L1887.98 185.146L1985 185.042L1863.4 523.588Z" fill="url(#paint1_linear)"/>
<path fill-rule="evenodd" clip-rule="evenodd" d="M261.698 533.434C232.501 550.237 199.406 559.088 165.718 559.101C132.03 559.115 98.9279 550.292 69.7173 533.513C40.7284 516.895 16.6105 492.959 -0.225828 464.099C-17.4259 434.873 -26 401.908 -26 355.667V16.7818L61.4032 0V211.851C77.6419 194.082 122.097 179.093 165.798 179.093C247.979 179.093 295.708 210.942 331.225 272.173C343.817 293.892 352.007 317.879 355.328 342.763C358.649 367.647 357.035 392.941 350.579 417.201C344.122 441.462 332.95 464.214 317.7 484.157C302.45 504.1 283.42 520.844 261.698 533.434ZM167.981 256.846C230.416 256.846 275.312 309.036 275.312 368.604C275.411 382.758 272.707 396.791 267.358 409.896C262.009 423.001 254.12 434.918 244.145 444.961C234.17 455.005 222.306 462.976 209.236 468.415C196.167 473.855 182.15 476.655 167.994 476.655C153.838 476.655 139.821 473.855 126.752 468.415C113.682 462.976 101.818 455.005 91.8431 444.961C81.8679 434.918 73.9785 423.001 68.6294 409.896C63.2803 396.791 60.5771 382.758 60.6756 368.604C60.6756 309.036 105.78 256.846 167.981 256.846Z" fill="url(#paint2_linear)"/>
<path fill-rule="evenodd" clip-rule="evenodd" d="M1064.77 466.178C1029.33 527.07 981.683 558.555 899.736 558.763C860.399 558.893 812.748 541.227 795.86 518.99L795.574 721.361L708.379 739.259C708.379 739.259 708.119 520.809 707.937 361.381C707.807 264.976 707.729 192.835 707.729 192.835C707.729 192.835 769.67 179.639 792.404 174.677C792.3 174.677 792.404 203.513 792.404 224.867C812.878 201.356 852.5 181.327 901.45 180.729C943.255 180.236 966.119 189.251 995.401 206.293C1024.2 222.849 1048.13 246.7 1064.77 275.445C1081.46 304.46 1090.23 337.344 1090.23 370.812C1090.23 404.28 1081.46 437.163 1064.77 466.178ZM901.892 262.976C854.501 262.976 816.048 293.865 801.966 336.625C797.185 353.848 796.899 378.839 796.899 378.839C801.004 434.432 842.861 481.426 901.892 481.426C964.197 481.426 1008.96 429.496 1008.96 370.24C1008.99 341.82 997.724 314.554 977.645 294.438C957.565 274.322 930.316 263.005 901.892 262.976Z" fill="url(#paint3_linear)"/>
<path fill-rule="evenodd" clip-rule="evenodd" d="M452.743 326.259C501.953 252.741 617.858 244.038 617.858 244.038C617.858 244.038 654.025 354.601 604.815 428.119C555.605 501.637 439.7 510.34 439.7 510.34C439.7 510.34 403.559 399.803 452.743 326.259Z" fill="url(#paint4_linear)"/>
<defs>
<linearGradient id="paint0_linear" x1="979.5" y1="0" x2="979.5" y2="756" gradientUnits="userSpaceOnUse">
<stop stop-color="#6D818C" stop-opacity="0.2"/>
<stop offset="0.776042" stop-color="#6D818C" stop-opacity="0.1"/>
</linearGradient>
<linearGradient id="paint1_linear" x1="979.5" y1="0" x2="979.5" y2="756" gradientUnits="userSpaceOnUse">
<stop stop-color="#6D818C" stop-opacity="0.2"/>
<stop offset="0.776042" stop-color="#6D818C" stop-opacity="0.1"/>
</linearGradient>
<linearGradient id="paint2_linear" x1="979.5" y1="0" x2="979.5" y2="756" gradientUnits="userSpaceOnUse">
<stop stop-color="#6D818C" stop-opacity="0.2"/>
<stop offset="0.776042" stop-color="#6D818C" stop-opacity="0.1"/>
</linearGradient>
<linearGradient id="paint3_linear" x1="979.5" y1="0" x2="979.5" y2="756" gradientUnits="userSpaceOnUse">
<stop stop-color="#6D818C" stop-opacity="0.2"/>
<stop offset="0.776042" stop-color="#6D818C" stop-opacity="0.1"/>
</linearGradient>
<linearGradient id="paint4_linear" x1="979.5" y1="0" x2="979.5" y2="756" gradientUnits="userSpaceOnUse">
<stop stop-color="#6D818C" stop-opacity="0.2"/>
<stop offset="0.776042" stop-color="#6D818C" stop-opacity="0.1"/>
</linearGradient>
</defs>
</svg>
