
<svg width="245" height="85" viewBox="0 0 245 85" fill="#333" xmlns="http://www.w3.org/2000/svg">
<path fill-rule="evenodd" clip-rule="evenodd" d="M117.587 65.7319C119.163 65.7319 105.849 66.7163 99.4582 57.8534L106.416 51.3557C108.893 54.2667 112.516 56.5667 117.349 56.5667C121.04 56.5667 125.05 55.2503 125.333 52.4551C125.565 50.159 124.031 49.0464 121.611 48.4917C119.353 47.9744 113.748 47.6717 110.503 47.0812C107.456 46.5265 104.32 45.5537 102.007 42.7862C96.8555 36.6205 100.838 28.8043 100.049 30.7739C101.657 26.7607 106.403 21.8704 116.229 21.8704C114.652 21.8704 126.347 20.8655 132.492 28.0326L126.674 34.4841C123.464 32.1314 121.299 31.0352 116.464 31.0352C112.772 31.0352 108.762 32.0759 108.48 34.8708C108.244 37.1985 109.825 38.5861 112.303 39.1316C114.176 39.5448 119.297 39.6393 123.079 40.2945C126.2 40.8351 129.39 41.9292 131.566 44.1867C133.616 46.313 134.424 48.8679 134.434 52.4623C134.319 55.1128 132.452 65.7319 117.587 65.7319ZM230.974 59.0284C230.974 59.0284 227.163 69.6193 225.845 73.0235C224.731 75.9076 223.658 78.0706 221.882 79.9695C218.915 83.141 214.112 84.8923 209.891 84.8923C208.187 84.8923 201.51 85.2055 196.051 80.3944L202.575 74.2041C203.906 75.0977 205.606 75.7006 207.99 75.9301C210.389 76.1609 213.304 75.6291 214.911 73.5184C216.009 72.1019 216.872 70.5189 217.468 68.8295C217.741 67.9556 217.396 66.2995 216.789 64.8139C213.139 55.8416 199.452 22.6205 199.452 22.6205L210.679 22.559L222.492 53.2059C223.26 51.0402 223.775 49.5935 223.775 49.5935L233.707 22.5152L244.5 22.5043L230.974 59.0284ZM77.3068 22.7596L77.2264 31.5437C71.7553 30.1742 67.4547 31.3025 64.8202 33.5177C62.7381 35.2691 61.172 38.7268 61.172 42.8907L61.1913 64.4883L50.698 64.5015V23.1853L61.1913 21.4476V26.1863C61.3179 25.9295 61.4803 25.692 61.6737 25.4809C63.7329 23.1595 70.3601 20.9701 77.3068 22.7596ZM93.2463 42.5688V64.4883L82.753 64.5015V23.1853L93.2463 21.4476V42.5688ZM34.0371 62.4953C30.631 64.446 26.7745 65.473 22.8495 65.4747C18.9244 65.4764 15.067 64.4527 11.6593 62.505C8.28268 60.5812 5.47073 57.8041 3.50509 54.4516C1.5017 51.0623 0.5 47.2372 0.5 41.8754V2.56092L10.6898 0.614207V25.1907C12.579 23.1298 17.7643 21.3893 22.858 21.3893C32.4356 21.3893 38.0008 25.0874 42.1418 32.1889C44.0911 35.5712 45.1172 39.4065 45.1172 43.3104C45.1172 47.2142 44.0911 51.0496 42.1418 54.4319C40.1954 57.7847 37.4003 60.5657 34.0378 62.4953H34.0371ZM23.1125 30.4098C30.3908 30.4098 35.6224 36.4653 35.6224 43.3743C35.6224 46.6921 34.3044 49.8741 31.9583 52.2201C29.6123 54.5662 26.4303 55.8842 23.1125 55.8842C19.7946 55.8842 16.6127 54.5662 14.2666 52.2201C11.9206 49.8741 10.6026 46.6921 10.6026 43.3743C10.6034 36.4653 15.8631 30.4098 23.1133 30.4098H23.1125ZM195.383 64.3721L184.333 64.3874V2.37682L195.383 0V64.3721ZM179.787 64.2539L168.238 64.3448L154.5 45.924L150.677 49.8527V64.3721L140.487 64.3874V2.37682L150.677 0.430104V37.1294L165.582 22.4617L177.276 22.5232L161.194 39.0476L179.787 64.2539Z" fill="black"/>
<path fill-rule="evenodd" clip-rule="evenodd" d="M83.718 16.5405C87.6423 10.6863 96.8891 9.99567 96.8891 9.99567C96.8891 9.99567 99.7728 18.7955 95.8484 24.6497C91.924 30.5039 82.6777 31.1944 82.6777 31.1944C82.6777 31.1944 79.7936 22.3943 83.718 16.5405Z" fill="#5FDA3E"/>
</svg>